<?xml version="1.0" encoding="iso-8859-1"?>
<!-- Generator: Adobe Illustrator 19.0.0, SVG Export Plug-In . SVG Version: 6.00 Build 0)  -->
<svg version="1.1" id="Capa_1" xmlns="http://www.w3.org/2000/svg" xmlns:xlink="http://www.w3.org/1999/xlink" x="0px" y="0px"
	 viewBox="0 0 512 512" style="enable-background:new 0 0 512 512;" xml:space="preserve">
<path style="fill:#FBC640;" d="M255.999,349.388l-28.104,69.233l-33.314-98.552v-0.198c-6.174-43.514,39.618-67.081,40.082-67.314
	l2.321-1.168l0.556,2.538c3.194,14.613,12.133,21.982,14.787,23.891c37.22-13.822,31.861-76.161,31.802-76.794l-0.477-5.114
	l3.829,3.424c0.22,0.197,22.163,19.973,38.212,47.548c21.453,36.863,22.744,70.852,3.735,98.293l-2.284,3.297l-9.669-28.59
	l-33.374,98.739L255.999,349.388z"/>
<path style="fill:#FF7D46;" d="M325.536,343.712l0.578-0.833c18.312-26.435,16.998-58.05-3.906-93.968
	c-11.848-20.357-26.949-36.357-33.775-43.098c0.199,6.304,0.085,17.626-2.277,29.847c-4.718,24.408-16.286,40.421-33.455,46.309
	l-0.881,0.301l-0.801-0.475c-0.514-0.305-12.094-7.339-16.772-24.383c-8.855,5.235-40.747,26.731-35.651,62.027l-3.906,0.935
	l-0.166-0.492l-33.374,98.74l-28.104-69.233l-28.113,69.221l-33.374-98.725l-19.007,56.235l-1.966-5.398
	c-8.478-23.278-9.784-48.019-3.882-73.535c4.703-20.336,13.97-41.195,27.545-62c23.058-35.339,51.009-58.65,51.289-58.882
	l1.775-1.468l25.14,40.224c6.622-6.187,30.74-29.516,53.496-61.505c24.404-34.306,52.2-85.885,46.03-136.785l-0.493-4.066
	l3.523,2.087c0.274,0.163,27.777,16.596,56.852,45.554c26.537,26.429,59.818,68.946,68.741,122.151
	c8.649-2.11,43.414-13.099,57.925-55.706l1.066-3.13l2.295,2.38c0.928,0.963,22.879,24.051,36.45,65.952
	c7.963,24.586,11.313,50.525,9.958,77.099c-1.691,33.173-10.762,67.423-26.96,101.797l-2.133,4.526l-18.769-55.533l-33.374,98.726
	l-28.113-69.221l-28.104,69.234L325.536,343.712z"/>
<polygon style="fill:#44C973;" points="7.273,497.491 71.559,307.288 107.122,412.492 107.122,412.502 135.857,497.491 "/>
<polygon style="fill:#248A48;" points="103.089,413.165 103.089,412.44 103.237,412.065 133.047,338.666 163.127,412.77 
	133.047,501.772 "/>
<g>
	<polygon style="fill:#44C973;" points="253.189,497.491 317.476,307.289 329.681,343.38 381.762,497.491 	"/>
	<polygon style="fill:#44C973;" points="376.142,497.491 404.877,412.501 404.983,412.177 440.439,307.288 504.727,497.491 	"/>
</g>
<polygon style="fill:#248A48;" points="225.918,412.77 255.999,338.665 286.08,412.77 255.999,501.773 "/>
<polygon style="fill:#44C973;" points="130.236,497.491 194.523,307.29 258.809,497.491 "/>
<polygon style="fill:#248A48;" points="348.872,412.77 378.952,338.666 408.909,412.43 408.909,413.156 378.952,501.772 "/>
<path d="M486.015,189.509c-14.138-43.654-37.337-68.049-38.317-69.066c-2.44-2.531-6.021-3.609-9.454-2.843
	c-3.431,0.765-6.216,3.263-7.35,6.59c-10.416,30.58-31.718,43.094-44.093,47.94c-9.042-40.809-32.807-81.209-69.246-117.5
	c-29.783-29.661-57.277-46.093-58.432-46.778c-3.305-1.958-7.435-1.868-10.651,0.231c-3.217,2.099-4.961,5.843-4.499,9.657
	c9.406,77.596-64.203,158.789-89.972,184.572l-18.626-29.798c-1.541-2.465-4.07-4.145-6.939-4.61
	c-2.868-0.465-5.799,0.332-8.038,2.185c-1.181,0.976-29.181,24.334-52.903,60.689c-31.277,47.935-40.107,96.007-25.668,139.286
	L0.531,492.246c-1.041,3.077-0.533,6.468,1.36,9.107c1.894,2.639,4.944,4.205,8.193,4.205h122.963H256h122.953h122.963
	c3.249,0,6.298-1.565,8.193-4.205s2.401-6.03,1.36-9.107l-41.118-121.654c15.562-34.078,24.323-68.067,26.006-101.087
	C497.761,241.947,494.283,215.033,486.015,189.509z M24.134,485.391L71.56,345.075l23.914,70.743
	c0.025,0.083,0.052,0.164,0.08,0.246l23.439,69.328L24.134,485.391L24.134,485.391z M133.045,463.989l-17.189-50.839l17.188-42.32
	l17.182,42.328L133.045,463.989z M147.098,485.391l47.425-140.315l47.426,140.315H147.098z M329.135,316.587l-2.106-6.232
	c-1.385-4.097-5.229-6.853-9.553-6.852c-4.324,0.001-8.166,2.758-9.552,6.854L283.067,383.9l-17.725-43.666
	c-1.544-3.802-5.238-6.291-9.343-6.291c-4.104,0-7.799,2.488-9.343,6.291l-17.726,43.668l-22.448-66.412
	c-2.953-23.29,12.866-39.535,23.83-47.814c6.276,12.618,15.312,18.3,16.594,19.059c2.542,1.506,5.617,1.821,8.411,0.863
	c29.34-10.062,38.099-41.134,40.46-63.918C313.11,246.226,336.963,282.047,329.135,316.587z M255.999,463.985l-17.18-50.827
	l17.18-42.323l17.18,42.322L255.999,463.985z M270.051,485.391l47.428-140.324l47.423,140.324H270.051z M378.954,463.988
	l-17.181-50.832l17.182-42.328l17.188,42.32L378.954,463.988z M393.005,485.391l23.439-69.328c0.027-0.081,0.053-0.162,0.079-0.244
	l23.915-70.745l47.427,140.317H393.005z M460.561,341.629l-10.569-31.272c-1.385-4.097-5.228-6.854-9.552-6.854l0,0
	c-4.325,0-8.167,2.758-9.552,6.854l-24.86,73.54l-17.733-43.664c-1.545-3.802-5.239-6.29-9.343-6.289s-7.798,2.488-9.342,6.291
	l-17.725,43.666l-13.008-38.488c17.926-29.371,15.829-64.715-6.211-102.587c-16.684-28.669-38.87-48.666-39.806-49.503
	c-3.088-2.763-7.551-3.348-11.252-1.485c-3.701,1.861-5.886,5.804-5.51,9.929c0.049,0.544,4.364,51.682-22.401,66.57
	c-2.819-2.967-6.535-8.167-8.275-16.129c-0.665-3.043-2.7-5.608-5.512-6.948c-2.811-1.341-6.085-1.305-8.868,0.094
	c-1.914,0.963-42.836,22.052-45.025,62.823c-0.429,0.674-0.782,1.405-1.047,2.185l-24.857,73.543l-17.725-43.666
	c-1.544-3.802-5.237-6.29-9.342-6.291c0,0,0,0-0.001,0c-4.104,0-7.798,2.487-9.342,6.289l-17.733,43.664l-24.86-73.54
	c-1.382-4.099-5.226-6.856-9.551-6.856c-4.325,0-8.167,2.758-9.552,6.854l-6.849,20.264c-0.663-28.09,9.001-57.686,28.951-88.401
	c14.38-22.14,30.816-39.398,40.568-48.774l18.805,30.088c1.576,2.521,4.183,4.219,7.127,4.638c2.942,0.417,5.922-0.481,8.139-2.461
	c1.198-1.071,29.67-26.655,57.012-65.072c31.547-44.326,48.024-86.11,49.158-124.526c10.267,7.51,24.322,18.734,38.771,33.171
	c25.452,25.432,57.44,66.403,65.298,117.174c0.41,2.65,1.859,5.028,4.027,6.607c2.167,1.579,4.874,2.229,7.523,1.808
	c1.834-0.292,40.655-6.959,62.423-47.874c7.259,10.518,17.081,27.386,24.175,49.678
	C481.674,242.354,479.438,291.012,460.561,341.629z"/>
<path d="M440.653,212.653c-5.457,1.113-8.977,6.439-7.863,11.895c3.231,15.832,4.077,32.424,2.515,49.315
	c-0.513,5.546,3.566,10.456,9.112,10.968c0.316,0.029,0.629,0.043,0.941,0.043c5.149,0,9.545-3.926,10.029-9.155
	c1.744-18.861,0.789-37.434-2.836-55.205C451.435,215.059,446.107,211.538,440.653,212.653z"/>
<path d="M434.806,185.252c-12.976,0-12.997,20.166,0,20.166C447.782,205.418,447.804,185.252,434.806,185.252z"/>
<g>
</g>
<g>
</g>
<g>
</g>
<g>
</g>
<g>
</g>
<g>
</g>
<g>
</g>
<g>
</g>
<g>
</g>
<g>
</g>
<g>
</g>
<g>
</g>
<g>
</g>
<g>
</g>
<g>
</g>
</svg>
