<?xml version="1.0" encoding="iso-8859-1"?>
<!-- Generator: Adobe Illustrator 19.0.0, SVG Export Plug-In . SVG Version: 6.00 Build 0)  -->
<svg version="1.1" id="Capa_1" xmlns="http://www.w3.org/2000/svg" xmlns:xlink="http://www.w3.org/1999/xlink" x="0px" y="0px"
	 viewBox="0 0 455.1 455.1" style="enable-background:new 0 0 455.1 455.1;" xml:space="preserve">
<path style="fill:#E24C4B;" d="M33.002,418.305h389.689c25.6,0,41.244-28.444,27.022-49.778L254.869,52.794
	c-12.8-21.333-42.667-21.333-55.467,0L4.558,368.528C-8.242,389.861,7.402,418.305,33.002,418.305z"/>
<polygon style="fill:#FFFFFF;" points="407.047,375.639 227.847,86.928 48.647,375.639 "/>
<path style="fill:#3F4448;" d="M244.913,368.528c-58.311,0-105.244-39.822-86.756-93.867c1.422-2.844,4.267-7.111,4.267-9.956
	c-1.422,12.8,2.844,25.6,12.8,34.133c-4.267-21.333,14.222-48.356,0-65.422c7.111,5.689,12.8,11.378,19.911,17.067
	c-15.644-29.867,44.089-42.667,31.289-91.022c22.756,12.8,36.978,39.822,35.556,66.844c-1.422,12.8-4.267,28.444,7.111,35.556
	c-2.844-8.533,0-19.911,7.111-25.6c-7.111,19.911,12.8,42.667,7.111,64c7.111-8.533,9.956-19.911,7.111-31.289
	C314.602,314.483,291.847,362.839,244.913,368.528z"/>
<path style="fill:#FFFFFF;" d="M257.713,361.417c-9.956,9.956-25.6,11.378-38.4,7.111c-15.644-5.689-25.6-21.333-28.444-36.978
	s0-32.711,4.267-48.356c0,11.378,8.533,21.333,19.911,24.178c-5.689-8.533-7.111-19.911-5.689-29.867
	c2.844-9.956,7.111-19.911,12.8-28.444c5.689-9.956,9.956-18.489,15.644-28.444c-4.267,21.333-7.111,44.089-4.267,65.422
	c1.422,9.956,4.267,21.333,11.378,28.444c-2.844-9.956,1.422-19.911,9.956-25.6c-5.689,8.533-5.689,18.489,2.844,27.022
	c7.111,8.533,11.378,18.489,8.533,29.867C264.824,351.461,261.98,357.15,257.713,361.417z"/>
<g>
</g>
<g>
</g>
<g>
</g>
<g>
</g>
<g>
</g>
<g>
</g>
<g>
</g>
<g>
</g>
<g>
</g>
<g>
</g>
<g>
</g>
<g>
</g>
<g>
</g>
<g>
</g>
<g>
</g>
</svg>
